PathFileType	4	(X/Y/Z)	FAIDC1_INITIAL_WALK01.trc	
DataRate	CameraRate	NumFrames	NumMarkers	Units	OrigDataRate	OrigDataStartFrame	OrigNumFrames
100	100	4	49	mm	100	244	113
Frame#	Time	RSH			LSH			C7			LELB			LWR			RELB			RWR			RASI			LASI			SACR			P1			P2			P3			LTHLP			LTHLD			LTHAP			LTHAD			LLEPI			LPAT			LMEPI			LTIAP			LTIAD			LTILAT			LLMAL			LMMAL			LHEEL			LMFS			LMFL			LP5MT			LP1MT			LTOE			RTHLP			RTHLD			RTHAP			RTHAD			RLEPI			RPAT			RMEPI			RTIAP			RTIAD			RTILAT			RLMAL			RMMAL			RHEEL			RMFS			RMFL			RP5MT			RP1MT			RTOE			
		X1	Y1	Z1	X2	Y2	Z2	X3	Y3	Z3	X4	Y4	Z4	X5	Y5	Z5	X6	Y6	Z6	X7	Y7	Z7	X8	Y8	Z8	X9	Y9	Z9	X10	Y10	Z10	X11	Y11	Z11	X12	Y12	Z12	X13	Y13	Z13	X14	Y14	Z14	X15	Y15	Z15	X16	Y16	Z16	X17	Y17	Z17	X18	Y18	Z18	X19	Y19	Z19	X20	Y20	Z20	X21	Y21	Z21	X22	Y22	Z22	X23	Y23	Z23	X24	Y24	Z24	X25	Y25	Z25	X26	Y26	Z26	X27	Y27	Z27	X28	Y28	Z28	X29	Y29	Z29	X30	Y30	Z30	X31	Y31	Z31	X32	Y32	Z32	X33	Y33	Z33	X34	Y34	Z34	X35	Y35	Z35	X36	Y36	Z36	X37	Y37	Z37	X38	Y38	Z38	X39	Y39	Z39	X40	Y40	Z40	X41	Y41	Z41	X42	Y42	Z42	X43	Y43	Z43	X44	Y44	Z44	X45	Y45	Z45	X46	Y46	Z46	X47	Y47	Z47	X48	Y48	Z48	X49	Y49	Z49	

1	0.00000	70.86798	1480.64563	191.41701	65.29474	1487.13110	-158.83313	-10.00537	1517.09155	29.29807	-58.27795	1162.16516	-279.87537	-30.37842	911.55676	-314.85895	74.25739	1152.46545	329.07721	278.22766	1006.34656	279.55115	74.23022	1007.12537	165.21220	108.20026	1007.17462	-109.24353	-80.38074	1080.28406	3.20195	-80.21436	1058.48828	-46.96371	-91.47681	1060.29016	55.27951	-103.56012	994.78027	4.33957	124.53906	731.58606	-171.67691	162.31128	634.80316	-153.48254	203.58716	766.42859	-90.07877	232.36841	673.71405	-83.71222	209.79932	511.00980	-127.35999	277.67548	548.31610	-67.22940	208.19104	517.25122	-4.02032	290.49713	395.77914	-53.34482	323.67670	271.66983	-46.31857	262.96124	317.92465	-133.09744	336.42264	103.57705	-92.22351	352.70947	140.27989	-3.67213	278.65796	66.78808	-51.24976	425.57642	134.69308	-25.49222	407.20529	95.42532	-93.82935	476.11816	93.67892	-104.91629	504.52481	114.43433	9.04305	547.94220	141.41936	-24.75238	-40.72888	724.98407	192.62216	-84.73151	618.08026	174.20293	50.27985	702.58936	136.24338	2.77081	601.32190	112.35765	-132.20398	518.09485	157.78757	-55.42188	491.21512	96.21855	-132.07764	523.74524	29.29251	-157.79181	383.34766	76.74583	-245.84058	262.02716	66.34953	-255.79187	356.81665	164.49901	-369.19348	148.90692	110.15053	-342.85608	161.27901	18.78687	-434.62732	166.15039	72.81041	-278.81152	111.52138	59.72313	-314.92773	92.36180	114.78542	-270.78967	51.89034	120.45207	-231.80676	57.50855	17.94315	-185.69080	40.35876	34.01160	
2	0.01000	86.00800	1479.48047	190.12018	80.44800	1485.98889	-160.03339	4.68353	1515.69019	28.01820	-41.19458	1160.14221	-280.68976	-14.42529	909.57904	-316.25604	87.48206	1150.98816	327.51746	289.94141	1001.96643	278.79352	90.65222	1005.52563	164.08865	124.64313	1006.46271	-110.36642	-64.06702	1079.06274	2.41942	-63.86108	1057.33411	-47.76093	-75.17017	1059.00354	54.49734	-87.33380	993.60254	3.37825	142.52179	731.44092	-170.54230	180.73358	634.97711	-152.13715	222.79523	767.25665	-90.83032	249.93372	674.32257	-83.27975	226.94720	510.09702	-126.42209	294.10657	547.28351	-65.91946	224.79987	516.74292	-3.56708	303.74139	392.33371	-51.29239	333.31714	267.43475	-43.52228	274.73016	315.25195	-131.45398	341.55209	100.96198	-89.91391	358.84131	135.89743	-0.79865	282.26550	65.60804	-49.06247	431.90109	126.96861	-22.11206	412.24304	89.88335	-91.20587	480.87561	85.01147	-102.28552	510.01514	102.89577	11.76192	554.68658	128.52325	-21.69653	-24.82898	723.38379	191.63443	-68.63049	616.25372	173.26144	66.39862	701.03009	135.76724	19.16479	599.69379	111.97543	-116.14532	516.63947	157.54988	-38.95630	488.42780	96.20990	-115.41724	521.97015	29.20442	-145.07800	382.14072	77.06900	-236.87317	263.62723	67.23480	-243.90271	358.98947	164.84628	-363.73657	154.39407	111.53687	-337.03101	165.81746	20.04494	-428.43091	174.15945	73.93221	-274.76892	113.18444	60.75490	-312.16028	95.00450	115.43358	-269.50195	52.57950	120.75692	-231.36609	57.50977	17.93918	-185.50446	40.09216	33.79291	
3	0.02000	101.08521	1478.56689	188.75603	95.63403	1485.07349	-161.34009	19.43823	1514.49841	26.64601	-23.80743	1158.14294	-281.42096	2.04120	907.69995	-317.53979	100.94098	1149.88977	325.72766	301.20508	997.39313	278.11472	107.15277	1004.04114	163.17068	141.10712	1006.18018	-111.16104	-47.75427	1078.26416	1.57379	-47.45471	1056.71606	-48.72070	-58.82184	1057.94751	53.60927	-71.17841	992.83527	2.22067	160.08734	730.88916	-169.43481	198.51855	634.78961	-150.31830	241.74921	767.55304	-91.91891	266.97052	674.08325	-82.68909	243.29541	509.40247	-125.58975	310.29974	545.32062	-64.72342	240.49475	515.94324	-2.99072	316.95490	389.84698	-49.13220	343.81079	264.73712	-40.85648	286.42108	313.27121	-128.62164	349.00580	99.62355	-87.96027	366.88596	133.20355	1.72243	287.41010	67.46160	-47.49362	439.75046	120.82299	-19.51413	418.59546	85.72740	-88.91504	486.54733	77.72549	-100.45078	516.56775	92.91763	13.56627	563.45013	116.42119	-19.88257	-8.35791	721.66730	190.57797	-51.52649	614.59967	172.59573	83.11841	699.55255	135.44473	36.37549	598.13306	111.57204	-99.09290	515.16943	157.16508	-21.17603	485.25366	96.88832	-97.56171	519.80835	28.98959	-131.42737	380.97000	77.33073	-226.94690	265.38647	68.07729	-231.09912	361.37155	165.19441	-357.33643	160.42023	112.83578	-330.18518	170.66061	21.37367	-421.01563	182.59114	75.09645	-270.02075	115.08719	61.76555	-308.31323	98.13217	116.34111	-267.74622	53.56378	121.04417	-230.71838	57.58641	17.82205	-185.24377	39.87488	33.50711	
4	0.03000	115.99237	1478.01392	187.41235	110.78369	1484.45557	-162.78107	34.38257	1513.90942	25.17253	-6.09729	1156.27710	-282.08856	18.94812	905.93640	-318.69977	114.15448	1148.65906	323.49612	312.00763	992.55737	277.45123	123.68549	1002.79456	162.35883	157.38776	1006.43286	-111.72650	-31.59747	1077.93152	0.82750	-31.15814	1056.68274	-49.62274	-42.55505	1057.19153	52.77580	-54.75531	992.39386	0.80437	177.07037	730.56860	-168.85419	215.03113	634.57495	-148.03336	260.53223	767.39917	-93.14908	284.56964	673.64929	-82.47446	259.00470	509.46207	-125.14059	326.13095	543.43665	-64.24530	255.16388	515.65863	-2.45847	330.24048	388.95956	-47.15344	354.98157	263.70963	-38.96625	299.47668	313.13593	-125.47253	357.41187	98.59528	-86.23883	375.90985	131.42947	3.55959	293.28296	70.84335	-45.86908	448.05011	115.64178	-17.78674	424.77902	81.85819	-87.16293	492.05167	70.81866	-99.58292	522.60815	83.54565	13.95389	571.85181	105.75974	-19.58691	8.84381	719.93164	189.51120	-33.61957	612.66266	171.56250	100.56488	698.21515	135.08878	54.49640	596.53040	111.05774	-80.90369	513.62067	156.55771	-2.69464	481.66559	97.11028	-78.54523	517.39386	28.61014	-116.68475	379.93839	77.35959	-215.83093	267.41168	68.93913	-216.93359	363.89816	165.40521	-349.76563	166.88158	114.02312	-322.22168	175.95561	22.85167	-412.16711	191.77931	76.53256	-264.40613	117.14274	62.93073	-303.65918	101.56086	117.20741	-265.40649	54.79961	121.31396	-229.73218	57.63242	17.68179	-184.78217	39.65763	33.23434	
